<svg width="27" height="22" viewBox="0 0 27 22" fill="none" xmlns="http://www.w3.org/2000/svg">
<path d="M24.0721 5.57202C24.089 5.80534 24.089 6.03872 24.089 6.27204C24.089 13.3887 18.59 21.5887 8.53907 21.5887C5.44261 21.5887 2.56612 20.7054 0.146484 19.172C0.586431 19.222 1.0094 19.2387 1.46628 19.2387C4.02124 19.2387 6.37323 18.3887 8.25142 16.9387C5.8487 16.8887 3.83515 15.3387 3.14139 13.2054C3.47983 13.2554 3.81822 13.2887 4.17358 13.2887C4.66426 13.2887 5.15499 13.222 5.61182 13.1054C3.10759 12.6054 1.22935 10.4387 1.22935 7.82202V7.75538C1.95691 8.15538 2.803 8.40537 3.69972 8.4387C2.22764 7.472 1.2632 5.82201 1.2632 3.95533C1.2632 2.95536 1.53388 2.03869 2.00768 1.23868C4.69807 4.50534 8.74209 6.63864 13.2768 6.87201C13.1922 6.47201 13.1414 6.05538 13.1414 5.63872C13.1414 2.67201 15.578 0.255371 18.6068 0.255371C20.1804 0.255371 21.6017 0.905371 22.6 1.95537C23.8352 1.72205 25.0196 1.27202 26.0686 0.655371C25.6625 1.9054 24.7996 2.9554 23.666 3.62202C24.7658 3.50541 25.8318 3.20534 26.8132 2.78872C26.0688 3.85534 25.1381 4.8053 24.0721 5.57202Z" fill="black"/>
</svg>
